<svg width="582" height="420" viewBox="0 0 582 420" fill="none" xmlns="http://www.w3.org/2000/svg">
<path d="M531.082 268.972L531.082 268.972L531.087 268.964C531.836 267.716 533.624 267.633 534.541 268.989L580.661 344.353L580.666 344.361C581.581 345.826 580.52 347.728 578.937 347.728H532.806H486.675C485.098 347.728 484.018 345.951 484.956 344.345L531.082 268.972Z" stroke="url(#paint0_linear_744_2)" stroke-width="2"/>
<path d="M169.996 32.8195L169.977 32.837L169.958 32.8556L141.882 60.9317C139.712 63.1017 139.712 66.8983 141.882 69.0683L169.958 97.1444C171.347 98.5333 171.347 101.064 169.958 102.453L144.453 127.958C143.064 129.347 140.533 129.347 139.144 127.958L111.068 99.8823C108.898 97.7123 105.102 97.7123 102.932 99.8823L74.8556 127.958C73.4667 129.347 70.9363 129.347 69.5474 127.958L44.0417 102.453C42.6528 101.064 42.6528 98.5333 44.0417 97.1444L72.1177 69.0683C74.2877 66.8983 74.2877 63.1017 72.1177 60.9317L44.0417 32.8556C42.6528 31.4667 42.6528 28.9363 44.0417 27.5474L69.5474 2.04171C70.9363 0.652764 73.4667 0.652764 74.8556 2.04171L102.932 30.1178C105.102 32.2877 108.898 32.2877 111.068 30.1178L139.144 2.04171C140.533 0.652764 143.064 0.652764 144.453 2.04171L169.958 27.5474C171.567 29.1559 171.51 31.4569 169.996 32.8195Z" stroke="url(#paint1_linear_744_2)" stroke-width="2"/>
<path d="M0.915527 418.432L81.9998 333.348H339V287" stroke="url(#paint2_linear_744_2)" stroke-width="2"/>
<defs>
<linearGradient id="paint0_linear_744_2" x1="483.612" y1="307.864" x2="582" y2="307.864" gradientUnits="userSpaceOnUse">
<stop stop-color="#F7941D"/>
<stop offset="1" stop-color="#27AAE1"/>
</linearGradient>
<linearGradient id="paint1_linear_744_2" x1="42" y1="65" x2="172.148" y2="65" gradientUnits="userSpaceOnUse">
<stop stop-color="#F7941D"/>
<stop offset="1" stop-color="#27AAE1"/>
</linearGradient>
<linearGradient id="paint2_linear_744_2" x1="0.915527" y1="418.432" x2="0.915528" y2="287" gradientUnits="userSpaceOnUse">
<stop stop-color="#F7941D"/>
<stop offset="1" stop-color="#27AAE1"/>
</linearGradient>
</defs>
</svg>
